<?xml version="1.0" encoding="UTF-8"?>
<!DOCTYPE svg PUBLIC "-//W3C//DTD SVG 1.1//EN" "http://www.w3.org/Graphics/SVG/1.1/DTD/svg11.dtd">
<svg xmlns="http://www.w3.org/2000/svg" version="1.1" width="508px" height="487px" style="shape-rendering:geometricPrecision; text-rendering:geometricPrecision; image-rendering:optimizeQuality; fill-rule:evenodd; clip-rule:evenodd" xmlns:xlink="http://www.w3.org/1999/xlink">
<g><path style="opacity:1" fill="#4401fe" d="M 254.5,39.5 C 316.02,37.1608 368.02,57.9941 410.5,102C 417.582,105.413 422.082,110.913 424,118.5C 464.61,176.707 472.944,239.374 449,306.5C 416.536,379.593 360.369,420.426 280.5,429C 194.032,430.706 130.865,393.54 91,317.5C 62.611,250.869 67.4443,186.869 105.5,125.5C 142.088,74.3668 191.755,45.7001 254.5,39.5 Z"/></g>
<g><path style="opacity:1" fill="#78b78f" d="M 269.5,113.5 C 269.5,113.167 269.5,112.833 269.5,112.5C 274.844,112.334 280.177,112.501 285.5,113C 286.056,113.383 286.389,113.883 286.5,114.5C 280.894,113.593 275.227,113.26 269.5,113.5 Z"/></g>
<g><path style="opacity:1" fill="#8990ac" d="M 269.5,112.5 C 269.5,112.833 269.5,113.167 269.5,113.5C 268.206,114.29 267.039,115.29 266,116.5C 265.502,119.817 265.335,123.15 265.5,126.5C 260.899,126.055 256.565,126.722 252.5,128.5C 252.953,127.542 253.619,126.708 254.5,126C 257.817,125.502 261.15,125.335 264.5,125.5C 264.335,122.15 264.502,118.817 265,115.5C 266.129,113.859 267.629,112.859 269.5,112.5 Z"/></g>
<g><path style="opacity:1" fill="#abea3b" d="M 269.5,113.5 C 275.227,113.26 280.894,113.593 286.5,114.5C 287.167,114.5 287.5,114.833 287.5,115.5C 288.026,119.312 288.693,122.979 289.5,126.5C 293.021,127.307 296.688,127.974 300.5,128.5C 302.519,134.26 303.019,140.26 302,146.5C 301.626,147.416 301.126,148.25 300.5,149C 296.644,149.177 292.977,149.677 289.5,150.5C 288.623,154.322 287.956,158.322 287.5,162.5C 287.52,163.726 287.853,164.726 288.5,165.5C 289.117,168.355 290.117,171.022 291.5,173.5C 290.185,172.524 288.852,171.524 287.5,170.5C 286.168,174.184 286.835,177.518 289.5,180.5C 291.143,185.734 292.143,191.067 292.5,196.5C 291.833,194.833 291.167,193.167 290.5,191.5C 288.468,186.31 286.802,180.976 285.5,175.5C 285.037,172.518 284.704,169.518 284.5,166.5C 283.5,166.5 282.5,166.5 281.5,166.5C 276.369,165.002 271.036,163.669 265.5,162.5C 265.069,158.663 264.402,154.997 263.5,151.5C 259.354,150.353 255.02,150.186 250.5,151C 248.019,153.199 245.686,155.366 243.5,157.5C 239.246,159.749 235.246,162.415 231.5,165.5C 231.5,164.5 231.5,163.5 231.5,162.5C 228.402,162.756 225.402,163.422 222.5,164.5C 223.306,163.272 224.306,162.272 225.5,161.5C 227.5,160.167 229.5,158.833 231.5,157.5C 235.168,156.002 238.502,154.002 241.5,151.5C 242.167,151.167 242.833,150.833 243.5,150.5C 246.127,149.454 248.627,148.12 251,146.5C 251.209,140.419 251.709,134.419 252.5,128.5C 256.565,126.722 260.899,126.055 265.5,126.5C 265.335,123.15 265.502,119.817 266,116.5C 267.039,115.29 268.206,114.29 269.5,113.5 Z"/></g>
<g><path style="opacity:1" fill="#4b15fa" d="M 282.5,117.5 C 283.167,117.5 283.5,117.833 283.5,118.5C 283.334,122.846 283.501,127.179 284,131.5C 288.066,132.464 292.233,132.797 296.5,132.5C 296.5,136.833 296.5,141.167 296.5,145.5C 292.167,145.5 287.833,145.5 283.5,145.5C 283.5,150.167 283.5,154.833 283.5,159.5C 278.833,159.5 274.167,159.5 269.5,159.5C 269.5,159.167 269.5,158.833 269.5,158.5C 269.5,154.5 269.5,150.5 269.5,146.5C 264.637,146.819 259.97,146.486 255.5,145.5C 255.334,141.154 255.501,136.821 256,132.5C 259.935,131.862 263.769,131.196 267.5,130.5C 268.167,126.5 268.833,122.5 269.5,118.5C 273.735,117.564 278.069,117.231 282.5,117.5 Z"/></g>
<g><path style="opacity:1" fill="#9291be" d="M 282.5,117.5 C 278.069,117.231 273.735,117.564 269.5,118.5C 271.223,117.2 273.39,116.533 276,116.5C 278.361,116.504 280.527,116.837 282.5,117.5 Z"/></g>
<g><path style="opacity:1" fill="#7aa593" d="M 287.5,115.5 C 288.5,115.833 289.167,116.5 289.5,117.5C 289.5,120.5 289.5,123.5 289.5,126.5C 288.693,122.979 288.026,119.312 287.5,115.5 Z"/></g>
<g><path style="opacity:1" fill="#7179d6" d="M 289.5,117.5 C 290.473,119.948 290.806,122.615 290.5,125.5C 293.385,125.194 296.052,125.527 298.5,126.5C 295.5,126.5 292.5,126.5 289.5,126.5C 289.5,123.5 289.5,120.5 289.5,117.5 Z"/></g>
<g><path style="opacity:1" fill="#88c688" d="M 289.5,126.5 C 292.5,126.5 295.5,126.5 298.5,126.5C 299.5,126.833 300.167,127.5 300.5,128.5C 296.688,127.974 293.021,127.307 289.5,126.5 Z"/></g>
<g><path style="opacity:1" fill="#8689a8" d="M 267.5,130.5 C 263.769,131.196 259.935,131.862 256,132.5C 255.501,136.821 255.334,141.154 255.5,145.5C 254.515,141.366 254.182,137.032 254.5,132.5C 254.611,131.883 254.944,131.383 255.5,131C 259.486,130.501 263.486,130.334 267.5,130.5 Z"/></g>
<g><path style="opacity:1" fill="#8e96a2" d="M 252.5,128.5 C 251.709,134.419 251.209,140.419 251,146.5C 248.627,148.12 246.127,149.454 243.5,150.5C 245.272,148.394 247.438,146.727 250,145.5C 249.874,139.412 250.708,133.745 252.5,128.5 Z"/></g>
<g><path style="opacity:1" fill="#94b7a5" d="M 300.5,128.5 C 304.009,130.982 305.343,134.482 304.5,139C 304.333,141.5 304.167,144 304,146.5C 303.124,148.635 301.624,149.969 299.5,150.5C 296.167,150.5 292.833,150.5 289.5,150.5C 292.977,149.677 296.644,149.177 300.5,149C 301.126,148.25 301.626,147.416 302,146.5C 303.019,140.26 302.519,134.26 300.5,128.5 Z"/></g>
<g><path style="opacity:1" fill="#8bad7b" d="M 254.5,132.5 C 254.182,137.032 254.515,141.366 255.5,145.5C 259.97,146.486 264.637,146.819 269.5,146.5C 269.5,150.5 269.5,154.5 269.5,158.5C 267.586,155.316 266.92,151.649 267.5,147.5C 262.901,147.8 258.401,147.467 254,146.5C 253.185,141.648 253.352,136.981 254.5,132.5 Z"/></g>
<g><path style="opacity:1" fill="#7769c6" d="M 283.5,118.5 C 284.483,122.298 284.817,126.298 284.5,130.5C 288.514,130.334 292.514,130.501 296.5,131C 297.056,131.383 297.389,131.883 297.5,132.5C 297.818,137.032 297.485,141.366 296.5,145.5C 296.5,141.167 296.5,136.833 296.5,132.5C 292.233,132.797 288.066,132.464 284,131.5C 283.501,127.179 283.334,122.846 283.5,118.5 Z"/></g>
<g><path style="opacity:1" fill="#7b90b0" d="M 297.5,132.5 C 298.486,136.97 298.819,141.637 298.5,146.5C 294.154,146.334 289.821,146.501 285.5,147C 284.533,151.401 284.2,155.901 284.5,160.5C 279.305,160.821 274.305,160.487 269.5,159.5C 274.167,159.5 278.833,159.5 283.5,159.5C 283.5,154.833 283.5,150.167 283.5,145.5C 287.833,145.5 292.167,145.5 296.5,145.5C 297.485,141.366 297.818,137.032 297.5,132.5 Z"/></g>
<g><path style="opacity:1" fill="#8891af" d="M 263.5,151.5 C 259.486,151.334 255.486,151.501 251.5,152C 249.326,154.584 246.659,156.418 243.5,157.5C 245.686,155.366 248.019,153.199 250.5,151C 255.02,150.186 259.354,150.353 263.5,151.5 Z"/></g>
<g><path style="opacity:1" fill="#6173df" d="M 289.5,150.5 C 292.833,150.5 296.167,150.5 299.5,150.5C 296.713,151.477 293.713,151.81 290.5,151.5C 290.806,154.385 290.473,157.052 289.5,159.5C 289.5,156.5 289.5,153.5 289.5,150.5 Z"/></g>
<g><path style="opacity:1" fill="#7979be" d="M 241.5,151.5 C 238.502,154.002 235.168,156.002 231.5,157.5C 234.132,154.51 237.465,152.51 241.5,151.5 Z"/></g>
<g><path style="opacity:1" fill="#4504fd" d="M 263.5,151.5 C 263.335,154.518 263.502,157.518 264,160.5C 264.278,161.416 264.778,162.082 265.5,162.5C 265.825,164.132 266.825,165.132 268.5,165.5C 272.787,166.375 277.121,166.708 281.5,166.5C 281.833,167.167 282.167,167.833 282.5,168.5C 282.12,172.986 283.287,176.986 286,180.5C 285.982,184.921 287.482,188.588 290.5,191.5C 290.338,193.527 290.505,195.527 291,197.5C 291.383,198.056 291.883,198.389 292.5,198.5C 292.62,201.578 293.62,204.245 295.5,206.5C 295.702,208.95 295.369,211.283 294.5,213.5C 293.883,213.611 293.383,213.944 293,214.5C 291.693,223.448 291.193,232.448 291.5,241.5C 283.826,241.334 276.159,241.5 268.5,242C 267.944,242.383 267.611,242.883 267.5,243.5C 264.506,244.154 261.506,244.821 258.5,245.5C 252.507,244.073 246.507,242.74 240.5,241.5C 238.374,240.952 236.374,240.285 234.5,239.5C 234.666,229.828 234.5,220.161 234,210.5C 233.617,209.944 233.117,209.611 232.5,209.5C 231.92,207.251 230.587,205.585 228.5,204.5C 227.198,202.178 225.198,200.845 222.5,200.5C 217.695,199.513 212.695,199.179 207.5,199.5C 207.334,194.821 207.501,190.155 208,185.5C 209.032,183.973 210.199,182.64 211.5,181.5C 214.563,179.975 217.23,177.975 219.5,175.5C 227.896,169.975 235.896,163.975 243.5,157.5C 246.659,156.418 249.326,154.584 251.5,152C 255.486,151.501 259.486,151.334 263.5,151.5 Z"/></g>
<g><path style="opacity:1" fill="#7b7da5" d="M 263.5,151.5 C 264.402,154.997 265.069,158.663 265.5,162.5C 264.778,162.082 264.278,161.416 264,160.5C 263.502,157.518 263.335,154.518 263.5,151.5 Z"/></g>
<g><path style="opacity:1" fill="#7c8bb1" d="M 225.5,161.5 C 224.306,162.272 223.306,163.272 222.5,164.5C 220.833,165.167 219.167,165.833 217.5,166.5C 219.53,163.818 222.197,162.151 225.5,161.5 Z"/></g>
<g><path style="opacity:1" fill="#b7fa16" d="M 231.5,165.5 C 227.139,168.539 223.139,171.873 219.5,175.5C 216.039,176.551 213.373,178.551 211.5,181.5C 209.408,181.561 207.908,182.561 207,184.5C 206.501,189.823 206.334,195.156 206.5,200.5C 211.651,201.327 216.984,201.827 222.5,202C 224.407,203.122 226.407,203.955 228.5,204.5C 229.468,207.1 230.801,209.434 232.5,211.5C 232.334,221.172 232.5,230.839 233,240.5C 236.783,241.803 240.616,242.803 244.5,243.5C 249.945,245.59 255.612,246.924 261.5,247.5C 272.051,245.865 282.718,245.032 293.5,245C 294.485,235.917 294.818,226.751 294.5,217.5C 295.308,215.074 296.308,212.741 297.5,210.5C 297.332,208.829 296.665,207.496 295.5,206.5C 295.38,203.422 294.38,200.755 292.5,198.5C 292.5,197.833 292.5,197.167 292.5,196.5C 292.143,191.067 291.143,185.734 289.5,180.5C 286.835,177.518 286.168,174.184 287.5,170.5C 288.852,171.524 290.185,172.524 291.5,173.5C 292.272,174.694 293.272,175.694 294.5,176.5C 294.833,177.833 295.167,179.167 295.5,180.5C 295.892,182.179 296.392,183.846 297,185.5C 300.493,191.279 303.993,197.112 307.5,203C 323.191,203.229 338.858,203.729 354.5,204.5C 354.973,205.906 355.973,206.573 357.5,206.5C 358.419,209.089 360.086,211.089 362.5,212.5C 363.96,222.572 364.96,232.572 365.5,242.5C 365.5,242.833 365.5,243.167 365.5,243.5C 374.464,245.151 383.797,246.151 393.5,246.5C 395.022,247.562 396.688,248.229 398.5,248.5C 399.833,249.5 401.167,250.5 402.5,251.5C 402.833,252.167 403.167,252.833 403.5,253.5C 404.219,255.764 404.552,258.097 404.5,260.5C 404.667,273.837 404.5,287.171 404,300.5C 402.731,301.905 402.231,303.571 402.5,305.5C 401.075,306.922 400.075,308.589 399.5,310.5C 396.634,310.633 394.634,311.966 393.5,314.5C 392.078,314.709 390.745,315.209 389.5,316C 381.173,316.5 372.84,316.666 364.5,316.5C 364.5,324.167 364.5,331.833 364.5,339.5C 362.465,346.885 357.799,352.218 350.5,355.5C 335.133,356.802 319.8,356.802 304.5,355.5C 304.027,354.094 303.027,353.427 301.5,353.5C 301.19,351.856 300.19,350.856 298.5,350.5C 297.833,350.167 297.167,349.833 296.5,349.5C 295.766,348.292 295.433,346.959 295.5,345.5C 295.221,335.491 294.221,325.824 292.5,316.5C 292.167,316.5 291.833,316.5 291.5,316.5C 284.018,315.508 276.352,315.175 268.5,315.5C 266.078,313.732 263.412,312.232 260.5,311C 257.534,307.965 255.201,304.465 253.5,300.5C 252.833,287.006 252.167,273.673 251.5,260.5C 249.967,258.755 247.967,257.755 245.5,257.5C 241.842,254.939 237.842,252.939 233.5,251.5C 232.486,250.326 231.153,249.66 229.5,249.5C 228.626,248.475 227.459,247.808 226,247.5C 219.689,248.11 213.523,248.776 207.5,249.5C 206.514,253.97 206.181,258.637 206.5,263.5C 204.686,268.612 201.353,272.445 196.5,275C 187.167,275.667 177.833,275.667 168.5,275C 166.03,274.011 163.697,272.845 161.5,271.5C 160.489,269.628 159.655,267.628 159,265.5C 158.667,260.167 158.333,254.833 158,249.5C 152.917,248.693 147.75,248.193 142.5,248C 139.606,246.207 136.606,244.707 133.5,243.5C 133.573,241.973 132.906,240.973 131.5,240.5C 131.334,230.161 131.5,219.828 132,209.5C 133.332,207.34 134.832,205.34 136.5,203.5C 143.479,202.046 150.479,201.046 157.5,200.5C 157.5,200.167 157.5,199.833 157.5,199.5C 158.487,194.695 158.821,189.695 158.5,184.5C 159.765,182.209 161.098,179.875 162.5,177.5C 168.727,175.071 175.227,174.071 182,174.5C 188.742,174.073 195.242,175.073 201.5,177.5C 204.109,176.226 206.442,174.559 208.5,172.5C 211.047,171.066 213.381,169.4 215.5,167.5C 215.842,166.662 216.508,166.328 217.5,166.5C 219.167,165.833 220.833,165.167 222.5,164.5C 225.402,163.422 228.402,162.756 231.5,162.5C 231.5,163.5 231.5,164.5 231.5,165.5 Z"/></g>
<g><path style="opacity:1" fill="#8397a4" d="M 289.5,150.5 C 289.5,153.5 289.5,156.5 289.5,159.5C 288.85,161.435 288.517,163.435 288.5,165.5C 287.853,164.726 287.52,163.726 287.5,162.5C 287.956,158.322 288.623,154.322 289.5,150.5 Z"/></g>
<g><path style="opacity:1" fill="#8d9b88" d="M 265.5,162.5 C 271.036,163.669 276.369,165.002 281.5,166.5C 277.121,166.708 272.787,166.375 268.5,165.5C 266.825,165.132 265.825,164.132 265.5,162.5 Z"/></g>
<g><path style="opacity:1" fill="#777ebf" d="M 215.5,167.5 C 213.381,169.4 211.047,171.066 208.5,172.5C 207.391,172.557 206.391,172.89 205.5,173.5C 208.132,170.51 211.465,168.51 215.5,167.5 Z"/></g>
<g><path style="opacity:1" fill="#869aa5" d="M 243.5,157.5 C 235.896,163.975 227.896,169.975 219.5,175.5C 223.139,171.873 227.139,168.539 231.5,165.5C 235.246,162.415 239.246,159.749 243.5,157.5 Z"/></g>
<g><path style="opacity:1" fill="#7e87b6" d="M 288.5,165.5 C 291.791,168.412 293.791,172.078 294.5,176.5C 293.272,175.694 292.272,174.694 291.5,173.5C 290.117,171.022 289.117,168.355 288.5,165.5 Z"/></g>
<g><path style="opacity:1" fill="#96b583" d="M 281.5,166.5 C 282.5,166.5 283.5,166.5 284.5,166.5C 284.704,169.518 285.037,172.518 285.5,175.5C 284.349,173.221 283.349,170.888 282.5,168.5C 282.167,167.833 281.833,167.167 281.5,166.5 Z"/></g>
<g><path style="opacity:1" fill="#93a684" d="M 196.5,173.5 C 198.713,175.312 201.047,175.645 203.5,174.5C 203.842,173.662 204.508,173.328 205.5,173.5C 206.391,172.89 207.391,172.557 208.5,172.5C 206.442,174.559 204.109,176.226 201.5,177.5C 195.242,175.073 188.742,174.073 182,174.5C 175.227,174.071 168.727,175.071 162.5,177.5C 163.854,174.672 166.187,173.172 169.5,173C 178.578,172.196 187.578,172.363 196.5,173.5 Z"/></g>
<g><path style="opacity:1" fill="#7060c7" d="M 196.5,173.5 C 198.861,173.674 201.194,174.007 203.5,174.5C 201.047,175.645 198.713,175.312 196.5,173.5 Z"/></g>
<g><path style="opacity:1" fill="#6d54da" d="M 282.5,168.5 C 283.349,170.888 284.349,173.221 285.5,175.5C 286.802,180.976 288.468,186.31 290.5,191.5C 287.482,188.588 285.982,184.921 286,180.5C 283.287,176.986 282.12,172.986 282.5,168.5 Z"/></g>
<g><path style="opacity:1" fill="#8da69b" d="M 219.5,175.5 C 217.23,177.975 214.563,179.975 211.5,181.5C 213.373,178.551 216.039,176.551 219.5,175.5 Z"/></g>
<g><path style="opacity:1" fill="#7b7cc2" d="M 294.5,176.5 C 297.137,178.482 298.47,181.148 298.5,184.5C 297.857,182.924 296.857,181.59 295.5,180.5C 295.167,179.167 294.833,177.833 294.5,176.5 Z"/></g>
<g><path style="opacity:1" fill="#7f85b6" d="M 162.5,177.5 C 161.098,179.875 159.765,182.209 158.5,184.5C 158.5,183.833 158.5,183.167 158.5,182.5C 159.136,180.205 160.469,178.539 162.5,177.5 Z"/></g>
<g><path style="opacity:1" fill="#82ae8c" d="M 220.5,211.5 C 212.5,211.5 204.5,211.5 196.5,211.5C 195.833,202.833 195.167,194.167 194.5,185.5C 186.677,184.344 178.677,184.177 170.5,185C 169.517,193.415 169.183,201.915 169.5,210.5C 169.167,210.5 168.833,210.5 168.5,210.5C 168.334,201.827 168.5,193.16 169,184.5C 178,183.167 187,183.167 196,184.5C 196.5,193.16 196.666,201.827 196.5,210.5C 204.684,210.174 212.684,210.508 220.5,211.5 Z"/></g>
<g><path style="opacity:1" fill="#4506fe" d="M 194.5,185.5 C 194.334,194.506 194.5,203.506 195,212.5C 203.749,213.484 212.582,213.817 221.5,213.5C 222.655,220.655 222.822,227.988 222,235.5C 221.5,236 221,236.5 220.5,237C 211.99,237.171 203.657,237.671 195.5,238.5C 193.532,246.433 192.865,254.766 193.5,263.5C 185.833,263.5 178.167,263.5 170.5,263.5C 171.135,254.766 170.468,246.433 168.5,238.5C 168.167,238.5 167.833,238.5 167.5,238.5C 159.266,237.806 150.933,237.139 142.5,236.5C 142.5,228.833 142.5,221.167 142.5,213.5C 151.847,213.225 160.847,212.225 169.5,210.5C 169.183,201.915 169.517,193.415 170.5,185C 178.677,184.177 186.677,184.344 194.5,185.5 Z"/></g>
<g><path style="opacity:1" fill="#7a91ae" d="M 211.5,181.5 C 210.199,182.64 209.032,183.973 208,185.5C 207.501,190.155 207.334,194.821 207.5,199.5C 212.695,199.179 217.695,199.513 222.5,200.5C 217.167,200.5 211.833,200.5 206.5,200.5C 206.334,195.156 206.501,189.823 207,184.5C 207.908,182.561 209.408,181.561 211.5,181.5 Z"/></g>
<g><path style="opacity:1" fill="#695bce" d="M 158.5,182.5 C 158.5,183.167 158.5,183.833 158.5,184.5C 158.821,189.695 158.487,194.695 157.5,199.5C 157.167,199.5 156.833,199.5 156.5,199.5C 156.334,194.156 156.501,188.823 157,183.5C 157.383,182.944 157.883,182.611 158.5,182.5 Z"/></g>
<g><path style="opacity:1" fill="#7262d0" d="M 290.5,191.5 C 291.167,193.167 291.833,194.833 292.5,196.5C 292.5,197.167 292.5,197.833 292.5,198.5C 291.883,198.389 291.383,198.056 291,197.5C 290.505,195.527 290.338,193.527 290.5,191.5 Z"/></g>
<g><path style="opacity:1" fill="#8c89c8" d="M 156.5,199.5 C 156.833,199.5 157.167,199.5 157.5,199.5C 157.5,199.833 157.5,200.167 157.5,200.5C 151.409,200.211 145.409,200.545 139.5,201.5C 144.735,199.55 150.402,198.883 156.5,199.5 Z"/></g>
<g><path style="opacity:1" fill="#a9db76" d="M 157.5,200.5 C 150.479,201.046 143.479,202.046 136.5,203.5C 137.5,202.833 138.5,202.167 139.5,201.5C 145.409,200.545 151.409,200.211 157.5,200.5 Z"/></g>
<g><path style="opacity:1" fill="#9acd8c" d="M 206.5,200.5 C 211.833,200.5 217.167,200.5 222.5,200.5C 225.198,200.845 227.198,202.178 228.5,204.5C 226.407,203.955 224.407,203.122 222.5,202C 216.984,201.827 211.651,201.327 206.5,200.5 Z"/></g>
<g><path style="opacity:1" fill="#8cb498" d="M 295.5,180.5 C 296.857,181.59 297.857,182.924 298.5,184.5C 301.304,190.011 304.637,195.345 308.5,200.5C 322.154,201.333 335.821,201.833 349.5,202C 351.315,202.757 352.981,203.59 354.5,204.5C 338.858,203.729 323.191,203.229 307.5,203C 303.993,197.112 300.493,191.279 297,185.5C 296.392,183.846 295.892,182.179 295.5,180.5 Z"/></g>
<g><path style="opacity:1" fill="#8eb982" d="M 228.5,204.5 C 230.587,205.585 231.92,207.251 232.5,209.5C 232.5,210.167 232.5,210.833 232.5,211.5C 230.801,209.434 229.468,207.1 228.5,204.5 Z"/></g>
<g><path style="opacity:1" fill="#8180c0" d="M 292.5,198.5 C 294.38,200.755 295.38,203.422 295.5,206.5C 293.62,204.245 292.62,201.578 292.5,198.5 Z"/></g>
<g><path style="opacity:1" fill="#848aaf" d="M 354.5,204.5 C 356.027,204.427 357.027,205.094 357.5,206.5C 355.973,206.573 354.973,205.906 354.5,204.5 Z"/></g>
<g><path style="opacity:1" fill="#95a894" d="M 357.5,206.5 C 359.914,207.911 361.581,209.911 362.5,212.5C 360.086,211.089 358.419,209.089 357.5,206.5 Z"/></g>
<g><path style="opacity:1" fill="#8178a5" d="M 168.5,210.5 C 168.833,210.5 169.167,210.5 169.5,210.5C 160.847,212.225 151.847,213.225 142.5,213.5C 142.833,212.833 143.167,212.167 143.5,211.5C 151.748,210.531 160.082,210.198 168.5,210.5 Z"/></g>
<g><path style="opacity:1" fill="#5a47e5" d="M 194.5,185.5 C 195.167,194.167 195.833,202.833 196.5,211.5C 204.833,212.167 213.167,212.833 221.5,213.5C 212.582,213.817 203.749,213.484 195,212.5C 194.5,203.506 194.334,194.506 194.5,185.5 Z"/></g>
<g><path style="opacity:1" fill="#8f9e94" d="M 295.5,206.5 C 296.665,207.496 297.332,208.829 297.5,210.5C 296.308,212.741 295.308,215.074 294.5,217.5C 294.167,217.5 293.833,217.5 293.5,217.5C 293.833,216.167 294.167,214.833 294.5,213.5C 295.369,211.283 295.702,208.95 295.5,206.5 Z"/></g>
<g><path style="opacity:1" fill="#8c91ac" d="M 139.5,201.5 C 138.5,202.167 137.5,202.833 136.5,203.5C 134.832,205.34 133.332,207.34 132,209.5C 131.5,219.828 131.334,230.161 131.5,240.5C 130.341,230.008 130.175,219.341 131,208.5C 132.871,204.777 135.705,202.444 139.5,201.5 Z"/></g>
<g><path style="opacity:1" fill="#a9c498" d="M 143.5,211.5 C 143.167,212.167 142.833,212.833 142.5,213.5C 142.5,221.167 142.5,228.833 142.5,236.5C 141.176,232.893 140.509,228.893 140.5,224.5C 140.667,220.5 140.833,216.5 141,212.5C 141.671,211.748 142.504,211.414 143.5,211.5 Z"/></g>
<g><path style="opacity:1" fill="#93b665" d="M 312.5,217.5 C 323.993,216.341 335.659,216.174 347.5,217C 348.823,217.816 349.489,218.983 349.5,220.5C 348.5,219.833 347.5,219.167 346.5,218.5C 335.346,217.505 324.012,217.172 312.5,217.5 Z"/></g>
<g><path style="opacity:1" fill="#4706fd" d="M 346.5,218.5 C 347.5,219.167 348.5,219.833 349.5,220.5C 350.463,233.451 350.796,246.451 350.5,259.5C 363.167,259.5 375.833,259.5 388.5,259.5C 388.783,260.289 389.283,260.956 390,261.5C 390.667,273.5 390.667,285.5 390,297.5C 389.292,298.381 388.458,299.047 387.5,299.5C 374.829,299.333 362.162,299.5 349.5,300C 348.511,312.754 348.178,325.587 348.5,338.5C 347.571,339.315 346.571,340.148 345.5,341C 334.172,341.5 322.838,341.667 311.5,341.5C 310.833,340.167 309.833,339.167 308.5,338.5C 308.829,325.656 308.495,312.989 307.5,300.5C 295.34,299.669 283.007,299.169 270.5,299C 270,298.5 269.5,298 269,297.5C 268.5,285.505 268.333,273.505 268.5,261.5C 268.953,260.542 269.619,259.708 270.5,259C 282.829,258.5 295.162,258.333 307.5,258.5C 308.331,246.34 308.831,234.007 309,221.5C 309.692,220.975 310.192,220.308 310.5,219.5C 322.482,218.501 334.482,218.168 346.5,218.5 Z"/></g>
<g><path style="opacity:1" fill="#8c8bc9" d="M 232.5,209.5 C 233.117,209.611 233.617,209.944 234,210.5C 234.5,220.161 234.666,229.828 234.5,239.5C 233.833,230.167 233.167,220.833 232.5,211.5C 232.5,210.833 232.5,210.167 232.5,209.5 Z"/></g>
<g><path style="opacity:1" fill="#88919d" d="M 312.5,217.5 C 324.012,217.172 335.346,217.505 346.5,218.5C 334.482,218.168 322.482,218.501 310.5,219.5C 310.192,220.308 309.692,220.975 309,221.5C 308.831,234.007 308.331,246.34 307.5,258.5C 307.5,245.833 307.5,233.167 307.5,220.5C 308.67,218.721 310.336,217.721 312.5,217.5 Z"/></g>
<g><path style="opacity:1" fill="#939c98" d="M 349.5,220.5 C 350.117,220.611 350.617,220.944 351,221.5C 351.169,233.674 351.669,245.674 352.5,257.5C 364.5,258.167 376.5,258.833 388.5,259.5C 375.833,259.5 363.167,259.5 350.5,259.5C 350.796,246.451 350.463,233.451 349.5,220.5 Z"/></g>
<g><path style="opacity:1" fill="#97d484" d="M 362.5,212.5 C 363.167,212.5 363.5,212.833 363.5,213.5C 365.357,223.03 366.024,232.697 365.5,242.5C 364.96,232.572 363.96,222.572 362.5,212.5 Z"/></g>
<g><path style="opacity:1" fill="#704fcf" d="M 294.5,213.5 C 294.167,214.833 293.833,216.167 293.5,217.5C 293.5,219.167 293.5,220.833 293.5,222.5C 292.509,228.979 292.176,235.646 292.5,242.5C 284.112,242.227 275.779,242.56 267.5,243.5C 267.611,242.883 267.944,242.383 268.5,242C 276.159,241.5 283.826,241.334 291.5,241.5C 291.193,232.448 291.693,223.448 293,214.5C 293.383,213.944 293.883,213.611 294.5,213.5 Z"/></g>
<g><path style="opacity:1" fill="#a4d77e" d="M 232.5,211.5 C 233.167,220.833 233.833,230.167 234.5,239.5C 236.374,240.285 238.374,240.952 240.5,241.5C 241.833,242.167 243.167,242.833 244.5,243.5C 240.616,242.803 236.783,241.803 233,240.5C 232.5,230.839 232.334,221.172 232.5,211.5 Z"/></g>
<g><path style="opacity:1" fill="#7280cd" d="M 196.5,211.5 C 204.5,211.5 212.5,211.5 220.5,211.5C 221.496,211.414 222.329,211.748 223,212.5C 223.667,220.5 223.667,228.5 223,236.5C 222.184,237.823 221.017,238.489 219.5,238.5C 211.5,238.5 203.5,238.5 195.5,238.5C 203.657,237.671 211.99,237.171 220.5,237C 221,236.5 221.5,236 222,235.5C 222.822,227.988 222.655,220.655 221.5,213.5C 213.167,212.833 204.833,212.167 196.5,211.5 Z"/></g>
<g><path style="opacity:1" fill="#8c978f" d="M 293.5,222.5 C 293.83,229.532 293.497,236.532 292.5,243.5C 284.222,244.47 275.889,244.803 267.5,244.5C 267.5,244.167 267.5,243.833 267.5,243.5C 275.779,242.56 284.112,242.227 292.5,242.5C 292.176,235.646 292.509,228.979 293.5,222.5 Z"/></g>
<g><path style="opacity:1" fill="#6d7ece" d="M 363.5,213.5 C 364.458,213.953 365.292,214.619 366,215.5C 366.5,224.16 366.666,232.827 366.5,241.5C 374.903,240.866 382.903,241.533 390.5,243.5C 382.167,243.5 373.833,243.5 365.5,243.5C 365.5,243.167 365.5,242.833 365.5,242.5C 366.024,232.697 365.357,223.03 363.5,213.5 Z"/></g>
<g><path style="opacity:1" fill="#5e7bdc" d="M 142.5,236.5 C 150.933,237.139 159.266,237.806 167.5,238.5C 159.167,238.5 150.833,238.5 142.5,238.5C 142.5,237.833 142.5,237.167 142.5,236.5 Z"/></g>
<g><path style="opacity:1" fill="#8ba990" d="M 142.5,238.5 C 150.833,238.5 159.167,238.5 167.5,238.5C 167.833,238.5 168.167,238.5 168.5,238.5C 168.5,246.833 168.5,255.167 168.5,263.5C 167.508,255.684 167.174,247.684 167.5,239.5C 158.983,239.826 150.65,239.493 142.5,238.5 Z"/></g>
<g><path style="opacity:1" fill="#9cd67e" d="M 195.5,238.5 C 203.5,238.5 211.5,238.5 219.5,238.5C 212.018,239.492 204.352,239.825 196.5,239.5C 196.831,248.192 196.498,256.859 195.5,265.5C 194.817,265.863 194.15,266.196 193.5,266.5C 193.5,266.167 193.5,265.833 193.5,265.5C 195.428,256.765 196.095,247.765 195.5,238.5 Z"/></g>
<g><path style="opacity:1" fill="#756aca" d="M 240.5,241.5 C 246.507,242.74 252.507,244.073 258.5,245.5C 261.506,244.821 264.506,244.154 267.5,243.5C 267.5,243.833 267.5,244.167 267.5,244.5C 265.03,244.654 263.03,245.654 261.5,247.5C 255.612,246.924 249.945,245.59 244.5,243.5C 243.167,242.833 241.833,242.167 240.5,241.5 Z"/></g>
<g><path style="opacity:1" fill="#ace34c" d="M 293.5,217.5 C 293.833,217.5 294.167,217.5 294.5,217.5C 294.818,226.751 294.485,235.917 293.5,245C 282.718,245.032 272.051,245.865 261.5,247.5C 263.03,245.654 265.03,244.654 267.5,244.5C 275.889,244.803 284.222,244.47 292.5,243.5C 293.497,236.532 293.83,229.532 293.5,222.5C 293.5,220.833 293.5,219.167 293.5,217.5 Z"/></g>
<g><path style="opacity:1" fill="#a4dc40" d="M 365.5,243.5 C 373.833,243.5 382.167,243.5 390.5,243.5C 393.369,244.268 396.036,245.601 398.5,247.5C 398.5,247.833 398.5,248.167 398.5,248.5C 396.688,248.229 395.022,247.562 393.5,246.5C 383.797,246.151 374.464,245.151 365.5,243.5 Z"/></g>
<g><path style="opacity:1" fill="#7b71c3" d="M 398.5,248.5 C 398.5,248.167 398.5,247.833 398.5,247.5C 400.833,247.833 402.167,249.167 402.5,251.5C 401.167,250.5 399.833,249.5 398.5,248.5 Z"/></g>
<g><path style="opacity:1" fill="#8ba792" d="M 133.5,243.5 C 136.606,244.707 139.606,246.207 142.5,248C 147.75,248.193 152.917,248.693 158,249.5C 158.333,254.833 158.667,260.167 159,265.5C 159.655,267.628 160.489,269.628 161.5,271.5C 159.39,270.547 158.223,268.881 158,266.5C 157.667,261.167 157.333,255.833 157,250.5C 151.249,249.69 145.416,249.19 139.5,249C 137.004,247.669 135.004,245.836 133.5,243.5 Z"/></g>
<g><path style="opacity:1" fill="#848ab1" d="M 229.5,249.5 C 226.833,249.5 224.167,249.5 221.5,249.5C 216.833,249.5 212.167,249.5 207.5,249.5C 213.523,248.776 219.689,248.11 226,247.5C 227.459,247.808 228.626,248.475 229.5,249.5 Z"/></g>
<g><path style="opacity:1" fill="#6a7acd" d="M 229.5,249.5 C 231.153,249.66 232.486,250.326 233.5,251.5C 231.62,251.771 230.287,251.104 229.5,249.5 Z"/></g>
<g><path style="opacity:1" fill="#6d60c7" d="M 207.5,249.5 C 212.167,249.5 216.833,249.5 221.5,249.5C 217.366,250.485 213.032,250.818 208.5,250.5C 208.666,255.179 208.499,259.845 208,264.5C 207.617,265.056 207.117,265.389 206.5,265.5C 206.5,264.833 206.5,264.167 206.5,263.5C 206.181,258.637 206.514,253.97 207.5,249.5 Z"/></g>
<g><path style="opacity:1" fill="#848dae" d="M 233.5,251.5 C 237.842,252.939 241.842,254.939 245.5,257.5C 240.959,256.44 236.959,254.44 233.5,251.5 Z"/></g>
<g><path style="opacity:1" fill="#9cd880" d="M 307.5,220.5 C 307.5,233.167 307.5,245.833 307.5,258.5C 295.162,258.333 282.829,258.5 270.5,259C 269.619,259.708 268.953,260.542 268.5,261.5C 267.505,273.322 267.172,285.322 267.5,297.5C 266.34,285.34 266.173,273.007 267,260.5C 267.833,259.667 268.667,258.833 269.5,258C 281.829,257.5 294.162,257.333 306.5,257.5C 306.171,244.989 306.505,232.655 307.5,220.5 Z"/></g>
<g><path style="opacity:1" fill="#acdf74" d="M 352.5,257.5 C 364.838,257.333 377.171,257.5 389.5,258C 390.056,258.383 390.389,258.883 390.5,259.5C 389.833,259.5 389.167,259.5 388.5,259.5C 376.5,258.833 364.5,258.167 352.5,257.5 Z"/></g>
<g><path style="opacity:1" fill="#7141dc" d="M 168.5,238.5 C 170.468,246.433 171.135,254.766 170.5,263.5C 178.167,263.5 185.833,263.5 193.5,263.5C 192.865,254.766 193.532,246.433 195.5,238.5C 196.095,247.765 195.428,256.765 193.5,265.5C 185.826,265.666 178.159,265.5 170.5,265C 169.956,264.283 169.289,263.783 168.5,263.5C 168.5,255.167 168.5,246.833 168.5,238.5 Z"/></g>
<g><path style="opacity:1" fill="#8e8fbb" d="M 245.5,257.5 C 247.967,257.755 249.967,258.755 251.5,260.5C 251.5,273.833 251.5,287.167 251.5,300.5C 250.669,287.34 250.169,274.006 250,260.5C 248.122,259.947 246.622,258.947 245.5,257.5 Z"/></g>
<g><path style="opacity:1" fill="#a3d574" d="M 251.5,260.5 C 252.167,273.673 252.833,287.006 253.5,300.5C 255.201,304.465 257.534,307.965 260.5,311C 263.412,312.232 266.078,313.732 268.5,315.5C 265.645,314.883 262.978,313.883 260.5,312.5C 259.167,311.5 257.833,310.5 256.5,309.5C 256.011,308.005 255.345,306.671 254.5,305.5C 253.11,304.101 252.11,302.434 251.5,300.5C 251.5,287.167 251.5,273.833 251.5,260.5 Z"/></g>
<g><path style="opacity:1" fill="#898dbd" d="M 388.5,259.5 C 389.167,259.5 389.833,259.5 390.5,259.5C 391.646,272.425 391.813,285.425 391,298.5C 390.184,299.823 389.017,300.489 387.5,300.5C 387.5,300.167 387.5,299.833 387.5,299.5C 388.458,299.047 389.292,298.381 390,297.5C 390.667,285.5 390.667,273.5 390,261.5C 389.283,260.956 388.783,260.289 388.5,259.5 Z"/></g>
<g><path style="opacity:1" fill="#939e94" d="M 168.5,263.5 C 169.289,263.783 169.956,264.283 170.5,265C 178.159,265.5 185.826,265.666 193.5,265.5C 193.5,265.833 193.5,266.167 193.5,266.5C 185.493,266.666 177.493,266.5 169.5,266C 168.748,265.329 168.414,264.496 168.5,263.5 Z"/></g>
<g><path style="opacity:1" fill="#9197a4" d="M 403.5,253.5 C 404.966,254.347 405.8,255.68 406,257.5C 406.827,271.006 406.66,284.34 405.5,297.5C 405.829,284.989 405.495,272.655 404.5,260.5C 404.552,258.097 404.219,255.764 403.5,253.5 Z"/></g>
<g><path style="opacity:1" fill="#7c9f9d" d="M 206.5,263.5 C 206.5,264.167 206.5,264.833 206.5,265.5C 205.248,270.506 202.248,274.006 197.5,276C 187.5,276.667 177.5,276.667 167.5,276C 164.771,275.434 162.771,273.934 161.5,271.5C 163.697,272.845 166.03,274.011 168.5,275C 177.833,275.667 187.167,275.667 196.5,275C 201.353,272.445 204.686,268.612 206.5,263.5 Z"/></g>
<g><path style="opacity:1" fill="#aadd67" d="M 404.5,260.5 C 405.495,272.655 405.829,284.989 405.5,297.5C 405.713,300.451 405.046,303.118 403.5,305.5C 403.167,305.5 402.833,305.5 402.5,305.5C 402.231,303.571 402.731,301.905 404,300.5C 404.5,287.171 404.667,273.837 404.5,260.5 Z"/></g>
<g><path style="opacity:1" fill="#6f87d9" d="M 268.5,261.5 C 268.333,273.505 268.5,285.505 269,297.5C 269.5,298 270,298.5 270.5,299C 283.007,299.169 295.34,299.669 307.5,300.5C 295.167,300.5 282.833,300.5 270.5,300.5C 269.167,299.833 268.167,298.833 267.5,297.5C 267.172,285.322 267.505,273.322 268.5,261.5 Z"/></g>
<g><path style="opacity:1" fill="#a7cc84" d="M 270.5,300.5 C 282.833,300.5 295.167,300.5 307.5,300.5C 308.495,312.989 308.829,325.656 308.5,338.5C 306.52,326.545 305.854,314.212 306.5,301.5C 294.322,301.828 282.322,301.495 270.5,300.5 Z"/></g>
<g><path style="opacity:1" fill="#5855e2" d="M 387.5,299.5 C 387.5,299.833 387.5,300.167 387.5,300.5C 386.833,300.5 386.167,300.5 385.5,300.5C 373.655,300.172 361.988,300.505 350.5,301.5C 349.833,313.833 349.167,326.167 348.5,338.5C 348.178,325.587 348.511,312.754 349.5,300C 362.162,299.5 374.829,299.333 387.5,299.5 Z"/></g>
<g><path style="opacity:1" fill="#89b46f" d="M 385.5,300.5 C 374.346,301.495 363.012,301.828 351.5,301.5C 351.828,313.678 351.495,325.678 350.5,337.5C 350.5,325.5 350.5,313.5 350.5,301.5C 361.988,300.505 373.655,300.172 385.5,300.5 Z"/></g>
<g><path style="opacity:1" fill="#7e73c3" d="M 254.5,305.5 C 255.345,306.671 256.011,308.005 256.5,309.5C 254.824,308.817 254.157,307.483 254.5,305.5 Z"/></g>
<g><path style="opacity:1" fill="#8e9aa6" d="M 402.5,305.5 C 402.833,305.5 403.167,305.5 403.5,305.5C 402.92,307.749 401.587,309.415 399.5,310.5C 400.075,308.589 401.075,306.922 402.5,305.5 Z"/></g>
<g><path style="opacity:1" fill="#9bb18e" d="M 399.5,310.5 C 398.473,312.194 397.139,313.527 395.5,314.5C 394.833,314.5 394.167,314.5 393.5,314.5C 394.634,311.966 396.634,310.633 399.5,310.5 Z"/></g>
<g><path style="opacity:1" fill="#79a696" d="M 260.5,312.5 C 262.978,313.883 265.645,314.883 268.5,315.5C 276.352,315.175 284.018,315.508 291.5,316.5C 283.167,316.5 274.833,316.5 266.5,316.5C 263.853,316.071 261.853,314.738 260.5,312.5 Z"/></g>
<g><path style="opacity:1" fill="#a3d156" d="M 292.5,316.5 C 294.221,325.824 295.221,335.491 295.5,345.5C 294.015,343.751 293.015,341.751 292.5,339.5C 292.5,331.833 292.5,324.167 292.5,316.5 Z"/></g>
<g><path style="opacity:1" fill="#676ad2" d="M 393.5,314.5 C 394.167,314.5 394.833,314.5 395.5,314.5C 394.571,315.315 393.571,316.148 392.5,317C 383.84,317.5 375.173,317.666 366.5,317.5C 367.136,326.565 366.47,335.231 364.5,343.5C 364.5,342.167 364.5,340.833 364.5,339.5C 364.5,331.833 364.5,324.167 364.5,316.5C 372.84,316.666 381.173,316.5 389.5,316C 390.745,315.209 392.078,314.709 393.5,314.5 Z"/></g>
<g><path style="opacity:1" fill="#665bd4" d="M 266.5,316.5 C 274.833,316.5 283.167,316.5 291.5,316.5C 291.833,316.5 292.167,316.5 292.5,316.5C 292.5,324.167 292.5,331.833 292.5,339.5C 291.883,339.389 291.383,339.056 291,338.5C 290.5,331.508 290.334,324.508 290.5,317.5C 282.316,317.826 274.316,317.492 266.5,316.5 Z"/></g>
<g><path style="opacity:1" fill="#888bb7" d="M 350.5,301.5 C 350.5,313.5 350.5,325.5 350.5,337.5C 349.578,339.816 347.911,341.483 345.5,342.5C 333.988,342.828 322.654,342.495 311.5,341.5C 322.838,341.667 334.172,341.5 345.5,341C 346.571,340.148 347.571,339.315 348.5,338.5C 349.167,326.167 349.833,313.833 350.5,301.5 Z"/></g>
<g><path style="opacity:1" fill="#aade74" d="M 308.5,338.5 C 309.833,339.167 310.833,340.167 311.5,341.5C 322.654,342.495 333.988,342.828 345.5,342.5C 334.007,343.659 322.341,343.826 310.5,343C 308.893,341.951 308.227,340.451 308.5,338.5 Z"/></g>
<g><path style="opacity:1" fill="#6c64d5" d="M 292.5,339.5 C 293.015,341.751 294.015,343.751 295.5,345.5C 295.433,346.959 295.766,348.292 296.5,349.5C 293.082,347.199 291.749,343.866 292.5,339.5 Z"/></g>
<g><path style="opacity:1" fill="#a0b499" d="M 298.5,350.5 C 300.19,350.856 301.19,351.856 301.5,353.5C 299.5,353.5 298.5,352.5 298.5,350.5 Z"/></g>
<g><path style="opacity:1" fill="#818bb2" d="M 301.5,353.5 C 303.027,353.427 304.027,354.094 304.5,355.5C 302.973,355.573 301.973,354.906 301.5,353.5 Z"/></g>
<g><path style="opacity:1" fill="#8d94a4" d="M 364.5,339.5 C 364.5,340.833 364.5,342.167 364.5,343.5C 361.748,349.42 357.415,353.92 351.5,357C 336.167,357.667 320.833,357.667 305.5,357C 304.944,356.617 304.611,356.117 304.5,355.5C 319.8,356.802 335.133,356.802 350.5,355.5C 357.799,352.218 362.465,346.885 364.5,339.5 Z"/></g>
</svg>
